<svg xmlns="http://www.w3.org/2000/svg" xmlns:xlink="http://www.w3.org/1999/xlink" width="1080" height="2280" viewBox="0 0 1080 2280">
  <defs>
    <filter id="Ellipse_57" x="867" y="2069" width="192" height="192" filterUnits="userSpaceOnUse">
      <feOffset dy="13" input="SourceAlpha"/>
      <feGaussianBlur stdDeviation="7" result="blur"/>
      <feFlood flood-color="#06ccff" flood-opacity="0.271"/>
      <feComposite operator="in" in2="blur"/>
      <feComposite in="SourceGraphic"/>
    </filter>
    <clipPath id="clip-_3._Request_a_ride">
      <rect width="1080" height="2280"/>
    </clipPath>
  </defs>
  <g id="_3._Request_a_ride" data-name="3. Request a ride" clip-path="url(#clip-_3._Request_a_ride)">
    <rect width="1080" height="2280" fill="#fff"/>
    <g id="next" transform="translate(888 2077)">
      <g transform="matrix(1, 0, 0, 1, -888, -2077)" filter="url(#Ellipse_57)">
        <circle id="Ellipse_57-2" data-name="Ellipse 57" cx="75" cy="75" r="75" transform="translate(888 2077)" fill="#08c585"/>
      </g>
      <g id="next-2" data-name="next" transform="translate(40 51)">
        <path id="left-arrow" d="M10.885,37.963h57.55L46.4,16.974a2.885,2.885,0,0,1,3.98-4.179L75.545,36.768a5.767,5.767,0,0,1-.05,8.209L50.376,68.9a2.885,2.885,0,1,1-3.98-4.177l22.129-20.99H10.885a2.885,2.885,0,1,1,0-5.77Z" transform="translate(-8 -12)" fill="#fff"/>
        <path id="left-arrow-2" data-name="left-arrow" d="M10.885,37.963h57.55L46.4,16.974a2.885,2.885,0,0,1,3.98-4.179L75.545,36.768a5.767,5.767,0,0,1-.05,8.209L50.376,68.9a2.885,2.885,0,1,1-3.98-4.177l22.129-20.99H10.885a2.885,2.885,0,1,1,0-5.77Z" transform="translate(-8 -12)" fill="#fff"/>
      </g>
    </g>
    <g id="top">
      <rect id="Rectangle_378" data-name="Rectangle 378" width="993" height="485" rx="20" transform="translate(44 179)" fill="#212e3e"/>
      <g id="OBJECTS" transform="translate(-371.922 -20.736)">
        <g id="Group_185" data-name="Group 185" transform="translate(490.922 273.736)">
          <g id="Group_184" data-name="Group 184">
            <path id="Path_367" data-name="Path 367" d="M626.726,321.736H590.872a7.721,7.721,0,0,0-7.72,7.72v10.861h51.294V329.456A7.723,7.723,0,0,0,626.726,321.736Z" transform="translate(-367.867 -321.736)" fill="#fafcf7"/>
            <path id="Path_368" data-name="Path 368" d="M637.945,326.272h-52.6a3.269,3.269,0,0,0-3.271,3.268v5.888h59.145V329.54A3.268,3.268,0,0,0,637.945,326.272Z" transform="translate(-370.715 -309.785)" fill="#212e3e"/>
            <path id="Path_369" data-name="Path 369" d="M546.076,406.635l319.463-1.523s12.354-27.221-3.29-42.872-284.863-15.553-301.707-7S530.639,391.2,546.076,406.635Z" transform="translate(-483.676 -248.646)" fill="#19232f"/>
            <circle id="Ellipse_72" data-name="Ellipse 72" cx="35.195" cy="35.195" r="35.195" transform="translate(65.457 116.443)" fill="#212e3e"/>
            <g id="Group_181" data-name="Group 181" transform="translate(76.866 127.853)">
              <circle id="Ellipse_73" data-name="Ellipse 73" cx="23.786" cy="23.786" r="23.786" fill="#cedeed"/>
              <path id="Path_370" data-name="Path 370" d="M549.9,358.755l6.23,16.691,6.23-16.691a23.935,23.935,0,0,0-12.46,0Z" transform="translate(-532.344 -354.226)" fill="#212e3e"/>
              <path id="Path_371" data-name="Path 371" d="M559.51,358.5l-7.4,16.208,16.207-7.4a24.024,24.024,0,0,0-3.824-4.987A23.683,23.683,0,0,0,559.51,358.5Z" transform="translate(-526.513 -352.732)" fill="#212e3e"/>
              <path id="Path_372" data-name="Path 372" d="M569.013,361.741l-16.694,6.23,16.694,6.23a24.029,24.029,0,0,0,0-12.46Z" transform="translate(-525.971 -344.185)" fill="#212e3e"/>
              <path id="Path_373" data-name="Path 373" d="M568.321,371.351l-16.207-7.4,7.4,16.208a24.01,24.01,0,0,0,8.811-8.811Z" transform="translate(-526.513 -338.354)" fill="#212e3e"/>
              <path id="Path_374" data-name="Path 374" d="M562.36,380.854l-6.23-16.694-6.23,16.694a24.032,24.032,0,0,0,12.46,0Z" transform="translate(-532.344 -337.812)" fill="#212e3e"/>
              <path id="Path_375" data-name="Path 375" d="M555.467,380.161l7.4-16.207-16.207,7.4a24.008,24.008,0,0,0,8.811,8.811Z" transform="translate(-540.891 -338.354)" fill="#212e3e"/>
              <path id="Path_376" data-name="Path 376" d="M546.914,374.2l16.691-6.23-16.691-6.23a23.933,23.933,0,0,0,0,12.46Z" transform="translate(-542.385 -344.185)" fill="#212e3e"/>
              <path id="Path_377" data-name="Path 377" d="M546.656,367.308l16.207,7.4-7.4-16.208a24.008,24.008,0,0,0-8.811,8.811Z" transform="translate(-540.891 -352.732)" fill="#212e3e"/>
              <circle id="Ellipse_74" data-name="Ellipse 74" cx="7.244" cy="7.244" r="7.244" transform="translate(16.542 16.542)" fill="#cedeed"/>
            </g>
            <path id="Path_378" data-name="Path 378" d="M962.034,413.131c-.57-3.428-11.435-5.714-11.435-5.714s2.286-26.3-5.147-28.587-40.593-3.431-40.593-3.431S850.97,335.944,832.1,331.368s-97.31-6.255-128.5,5.725c-11.5,4.413-62.321,39.452-62.321,39.452S560.655,393.7,553.8,402.275s-15.437,20.013-15.437,20.013-12.009,1.141-13.151,12.006-2.857,25.16,1.716,28.017c1.1.687,24.491,1.011,59.4,1.109a38.8,38.8,0,1,1,77.075-6.35,39.041,39.041,0,0,1-.556,6.3c54.616-.167,116.269-.541,166.065-.89a38.8,38.8,0,1,1,77.22-5.4,38.468,38.468,0,0,1-.334,4.827c11.886-.094,18.861-.156,19.09-.156,1.715,0,25.156-1.716,34.875-8.574S962.6,416.563,962.034,413.131Z" transform="translate(-523.92 -305.423)" fill="#e4bb42"/>
            <path id="Path_379" data-name="Path 379" d="M747.942,355.766H559.014a38.244,38.244,0,0,1,11.362,34.243c54.616-.167,116.269-.542,166.065-.891a38.181,38.181,0,0,1,11.5-33.352Z" transform="translate(-431.465 -232.075)" fill="#d8a832"/>
            <path id="Path_380" data-name="Path 380" d="M597.677,355.766H526.868a12.676,12.676,0,0,0-1.661,5.176c-1.141,10.864-2.857,25.16,1.716,28.017,1.1.687,24.491,1.011,59.4,1.109a38.283,38.283,0,0,1,11.351-34.3Z" transform="translate(-523.923 -232.075)" fill="#d8a832"/>
            <path id="Path_381" data-name="Path 381" d="M625.793,355.766a38.209,38.209,0,0,1,11.584,32.775c11.886-.094,18.861-.156,19.09-.156,1.715,0,25.156-1.716,34.875-8.574,5.376-3.795,5.678-14.579,4.776-24.044Z" transform="translate(-255.518 -232.075)" fill="#d8a832"/>
            <circle id="Ellipse_75" data-name="Ellipse 75" cx="35.195" cy="35.195" r="35.195" transform="translate(308.179 116.443)" fill="#212e3e"/>
            <g id="Group_182" data-name="Group 182" transform="translate(319.592 127.853)">
              <circle id="Ellipse_76" data-name="Ellipse 76" cx="23.786" cy="23.786" r="23.786" fill="#cedeed"/>
              <path id="Path_382" data-name="Path 382" d="M616.679,358.755l6.23,16.691,6.23-16.691a23.935,23.935,0,0,0-12.46,0Z" transform="translate(-599.123 -354.226)" fill="#212e3e"/>
              <path id="Path_383" data-name="Path 383" d="M626.289,358.5l-7.4,16.208,16.207-7.4a24.008,24.008,0,0,0-8.811-8.811Z" transform="translate(-593.292 -352.732)" fill="#212e3e"/>
              <path id="Path_384" data-name="Path 384" d="M635.792,361.741l-16.694,6.23,16.694,6.23a24.036,24.036,0,0,0,0-12.46Z" transform="translate(-592.753 -344.185)" fill="#212e3e"/>
              <path id="Path_385" data-name="Path 385" d="M635.1,371.351l-16.207-7.4,7.4,16.208a24.01,24.01,0,0,0,8.811-8.811Z" transform="translate(-593.292 -338.354)" fill="#212e3e"/>
              <path id="Path_386" data-name="Path 386" d="M629.138,380.854l-6.23-16.694-6.23,16.694a24.032,24.032,0,0,0,12.46,0Z" transform="translate(-599.126 -337.812)" fill="#212e3e"/>
              <path id="Path_387" data-name="Path 387" d="M622.245,380.161l7.4-16.207-16.207,7.4a24.007,24.007,0,0,0,8.811,8.811Z" transform="translate(-607.673 -338.354)" fill="#212e3e"/>
              <path id="Path_388" data-name="Path 388" d="M613.693,374.2l16.691-6.23-16.691-6.23a23.931,23.931,0,0,0,0,12.46Z" transform="translate(-609.164 -344.185)" fill="#212e3e"/>
              <path id="Path_389" data-name="Path 389" d="M613.435,367.308l16.207,7.4-7.4-16.208a24.008,24.008,0,0,0-8.811,8.811Z" transform="translate(-607.671 -352.732)" fill="#212e3e"/>
              <circle id="Ellipse_77" data-name="Ellipse 77" cx="7.244" cy="7.244" r="7.244" transform="translate(16.542 16.542)" fill="#cedeed"/>
            </g>
            <path id="Path_390" data-name="Path 390" d="M620.252,332.431l-4.961-1.57c-18.443,8.8-59.083,37.947-59.083,37.947h18.5c11.518,0,38.975-26.657,46.176-33.854A1.518,1.518,0,0,0,620.252,332.431Z" transform="translate(-438.858 -297.694)" fill="#212e3e"/>
            <g id="Group_183" data-name="Group 183" transform="translate(157.583 29.156)">
              <path id="Path_391" data-name="Path 391" d="M648.733,336.876s-19.929-7.989-53.831-7.041v46.983c30.863-.56,61.594-1.181,61.594-1.181s27.286-.174,31.03-3.918S665.3,345.214,648.733,336.876Z" transform="translate(-494.492 -329.757)" fill="#212e3e"/>
              <path id="Path_392" data-name="Path 392" d="M658.157,329.893a354.537,354.537,0,0,0-42.967,5.18,51.247,51.247,0,0,0-22.408,10.159c-10.552,8.273-25.505,20.918-25.505,26.13,0,8.062,22.256,5.99,40.887,5.99,5.994,0,20.675-.218,37.82-.509Z" transform="translate(-567.277 -329.4)" fill="#212e3e"/>
            </g>
            <path id="Path_393" data-name="Path 393" d="M543.331,348.757s23.164-2.661,25.233,4.067S553.821,364.259,546.308,366c-4.035.931-18.414,2.773-18.414,2.773S527.73,356.074,543.331,348.757Z" transform="translate(-513.458 -251.909)" fill="#fafcf7"/>
            <path id="Path_394" data-name="Path 394" d="M647.656,343.144s-6.47-.792-7.527,2.592-2.537,13.318-1.479,18.177,10.635,3.624,10.635,3.624S654.762,352.184,647.656,343.144Z" transform="translate(-222.605 -265.542)" fill="#dc7175"/>
            <path id="Path_395" data-name="Path 395" d="M568.37,344.982s3.162,1.036,4.2,0c.934-.934,2.079-4.609,7.8-6.27a2.007,2.007,0,0,1,2.519,1.465c.818,3.489,2.261,10.617.818,12.06-1.927,1.926-8.68-.131-10.624-2.072l-4.718,3.271S564.978,348.381,568.37,344.982Z" transform="translate(-410.786 -277.223)" fill="#eecd57"/>
            <path id="Path_396" data-name="Path 396" d="M605.855,344.329H583.839a4.063,4.063,0,0,0-4.06,4.064h0a4.06,4.06,0,0,0,4.06,4.06h22.016a4.06,4.06,0,0,0,4.06-4.06h0A4.063,4.063,0,0,0,605.855,344.329Z" transform="translate(-376.754 -262.209)" fill="#fafcf7"/>
            <path id="Path_397" data-name="Path 397" d="M634.8,344.329H612.782a4.063,4.063,0,0,0-4.06,4.064h0a4.06,4.06,0,0,0,4.06,4.06H634.8a4.06,4.06,0,0,0,4.06-4.06h0A4.058,4.058,0,0,0,634.8,344.329Z" transform="translate(-300.496 -262.209)" fill="#fafcf7"/>
          </g>
        </g>
      </g>
      <rect id="Rectangle_379" data-name="Rectangle 379" width="218" height="24" transform="translate(698 325)" fill="#485565"/>
      <rect id="Rectangle_380" data-name="Rectangle 380" width="293" height="24" transform="translate(660 367)" fill="#485565"/>
      <text id="Enter_your_details" data-name="Enter your details" transform="translate(541 607)" fill="#a19aab" font-size="50" font-family="SegoeUI-Semibold, Segoe UI" font-weight="600" letter-spacing="0.008em"><tspan x="-201.654" y="0">Enter your details</tspan></text>
      <text id="Request_a_Ride" data-name="Request a Ride" transform="translate(339 536.783)" fill="#fff" font-size="60" font-family="SegoeUI-Semibold, Segoe UI" font-weight="600"><tspan x="0" y="0">Request a Ride</tspan></text>
    </g>
    <g id="location" transform="translate(184 1079.998)">
      <g id="to" transform="translate(-142 -341.998)">
        <g id="circle">
          <circle id="Ellipse_79" data-name="Ellipse 79" cx="27.5" cy="27.5" r="27.5" fill="#08c585"/>
          <circle id="Ellipse_80" data-name="Ellipse 80" cx="11" cy="11" r="11" transform="translate(16.5 16.5)" fill="#fff"/>
        </g>
      </g>
      <g id="from" transform="translate(-138 -14.998)">
        <g id="Group_188" data-name="Group 188">
          <path id="Path_405" data-name="Path 405" d="M352.707,116.221c-.142,23.829-24.091,40.821-24.091,40.821s-23.747-16.86-23.6-41.1a23.848,23.848,0,1,1,47.694.284Z" transform="translate(-305.012 -92.042)" fill="#08c585"/>
          <circle id="Ellipse_81" data-name="Ellipse 81" cx="12.5" cy="12.5" r="12.5" transform="translate(11.038 12.231) rotate(0.344)" fill="#fff"/>
        </g>
      </g>
      <g id="arrow" transform="translate(362.559 -159.91)">
        <line id="Line_5" data-name="Line 5" x1="1" y2="127.412" stroke-dasharray="5 6" stroke="#a19aab" stroke-linecap="round" stroke-width="3" fill="none"/>
      </g>
      <rect id="Rectangle_377" data-name="Rectangle 377" width="945" height="5" transform="translate(-124 -187.998)" fill="#a19aab" opacity="0.3"/>
      <rect id="Rectangle_417" data-name="Rectangle 417" width="945" height="5" transform="translate(-124 135.002)" fill="#a19aab" opacity="0.3"/>
      <text id="_326_Westcourt_Place_Waterloo_ON" data-name="326, Westcourt Place, Waterloo, ON" transform="translate(-65 -228.998)" fill="#212e3e" font-size="45" font-family="SegoeUI-Semibold, Segoe UI" font-weight="600" letter-spacing="0.008em"><tspan x="0" y="0">326, Westcourt Place, Waterloo, ON</tspan></text>
      <text id="Drop_Address" data-name="Drop Address" transform="translate(-62 28.002)" fill="#a19aab" font-size="40" font-family="SegoeUI-Semibold, Segoe UI" font-weight="600" letter-spacing="0.008em"><tspan x="0" y="0">Drop Address</tspan></text>
      <text id="_128_Spruce_Street_Toronto_ON" data-name="128 Spruce Street, Toronto, ON" transform="translate(-65 94.002)" fill="#212e3e" font-size="45" font-family="SegoeUI-Semibold, Segoe UI" font-weight="600" letter-spacing="0.008em"><tspan x="0" y="0">128 Spruce Street, Toronto, ON</tspan></text>
      <text id="Pickup_Address" data-name="Pickup Address" transform="translate(-62 -298.998)" fill="#a19aab" font-size="40" font-family="SegoeUI-Semibold, Segoe UI" font-weight="600" letter-spacing="0.008em"><tspan x="0" y="0">Pickup Address</tspan></text>
    </g>
    <g id="time" transform="translate(185 1052.998)">
      <rect id="Rectangle_418" data-name="Rectangle 418" width="420" height="5" transform="translate(-117 373.002)" fill="#a19aab" opacity="0.3"/>
      <text id="Time-2" data-name="Time" transform="translate(-113 276.002)" fill="#a19aab" font-size="40" font-family="SegoeUI-Semibold, Segoe UI" font-weight="600" letter-spacing="0.008em"><tspan x="0" y="0">Time</tspan></text>
      <text id="_03:30_pm" data-name="03:30 pm" transform="translate(-116 342.002)" fill="#212e3e" font-size="45" font-family="SegoeUI-Semibold, Segoe UI" font-weight="600" letter-spacing="0.008em"><tspan x="0" y="0">03:30 pm</tspan></text>
    </g>
    <g id="person" transform="translate(702 1052.998)">
      <rect id="Rectangle_418-2" data-name="Rectangle 418" width="420" height="5" transform="translate(-117 373.002)" fill="#a19aab" opacity="0.3"/>
      <text id="Person-2" data-name="Person" transform="translate(-113 276.002)" fill="#a19aab" font-size="40" font-family="SegoeUI-Semibold, Segoe UI" font-weight="600" letter-spacing="0.008em"><tspan x="0" y="0">Person</tspan></text>
      <text id="_3_Three_" data-name="3 (Three)" transform="translate(-116 342.002)" fill="#212e3e" font-size="45" font-family="SegoeUI-Semibold, Segoe UI" font-weight="600" letter-spacing="0.008em"><tspan x="0" y="0">3 (Three)</tspan></text>
    </g>
    <g id="days" transform="translate(72 1357.744)">
      <rect id="Rectangle_388" data-name="Rectangle 388" width="937" height="98" transform="translate(0 338.256)" fill="#212e3e"/>
      <g id="day" transform="translate(123 350.256)">
        <text id="S" transform="translate(0 53)" fill="#ff2753" font-size="38" font-family="SegoeUI-Semibold, Segoe UI" font-weight="600" letter-spacing="0.008em"><tspan x="0" y="0">S</tspan></text>
        <g id="m" transform="translate(78)">
          <g id="Ellipse_82" data-name="Ellipse 82" fill="none" stroke="#979797" stroke-width="2">
            <circle cx="37.5" cy="37.5" r="37.5" stroke="none"/>
            <circle cx="37.5" cy="37.5" r="36.5" fill="none"/>
          </g>
          <text id="M-2" data-name="M" transform="translate(20 53)" fill="#fff" font-size="38" font-family="SegoeUI-Semibold, Segoe UI" font-weight="600" letter-spacing="0.008em"><tspan x="0" y="0">M</tspan></text>
        </g>
        <g id="t" transform="translate(189.227)">
          <g id="Ellipse_82-2" data-name="Ellipse 82" transform="translate(-0.227)" fill="none" stroke="#979797" stroke-width="2">
            <circle cx="37.5" cy="37.5" r="37.5" stroke="none"/>
            <circle cx="37.5" cy="37.5" r="36.5" fill="none"/>
          </g>
          <text id="T-2" data-name="T" transform="translate(26.773 53)" fill="#fff" font-size="38" font-family="SegoeUI-Semibold, Segoe UI" font-weight="600" letter-spacing="0.008em"><tspan x="0" y="0">T</tspan></text>
        </g>
        <g id="w" transform="translate(309.003)">
          <g id="Ellipse_82-3" data-name="Ellipse 82" transform="translate(-0.003)" fill="none" stroke="#979797" stroke-width="2">
            <circle cx="37.5" cy="37.5" r="37.5" stroke="none"/>
            <circle cx="37.5" cy="37.5" r="36.5" fill="none"/>
          </g>
          <text id="W-2" data-name="W" transform="translate(18.997 53)" fill="#fff" font-size="38" font-family="SegoeUI-Semibold, Segoe UI" font-weight="600" letter-spacing="0.008em"><tspan x="0" y="0">W</tspan></text>
        </g>
        <g id="t-3" data-name="t" transform="translate(427.773)">
          <g id="Ellipse_82-4" data-name="Ellipse 82" transform="translate(0.227)" fill="none" stroke="#979797" stroke-width="2">
            <circle cx="37.5" cy="37.5" r="37.5" stroke="none"/>
            <circle cx="37.5" cy="37.5" r="36.5" fill="none"/>
          </g>
          <text id="T-4" data-name="T" transform="translate(27.227 53)" fill="#fff" font-size="38" font-family="SegoeUI-Semibold, Segoe UI" font-weight="600" letter-spacing="0.008em"><tspan x="0" y="0">T</tspan></text>
        </g>
        <g id="f" transform="translate(539)">
          <g id="Ellipse_82-5" data-name="Ellipse 82" fill="none" stroke="#979797" stroke-width="2">
            <circle cx="37.5" cy="37.5" r="37.5" stroke="none"/>
            <circle cx="37.5" cy="37.5" r="36.5" fill="none"/>
          </g>
          <text id="F-2" data-name="F" transform="translate(28 53)" fill="#fff" font-size="38" font-family="SegoeUI-Semibold, Segoe UI" font-weight="600" letter-spacing="0.008em"><tspan x="0" y="0">F</tspan></text>
        </g>
        <text id="S-2" data-name="S" transform="translate(671 53)" fill="#fff" font-size="38" font-family="SegoeUI-Semibold, Segoe UI" font-weight="600" letter-spacing="0.008em"><tspan x="0" y="0">S</tspan></text>
      </g>
    </g>
    <g id="Checkbox" transform="translate(0 -41)">
      <text id="Has_Lugguage" data-name="Has Lugguage" transform="translate(154 1629)" fill="#212e3e" font-size="48" font-family="SegoeUI-Semibold, Segoe UI" font-weight="600" letter-spacing="0.008em"><tspan x="0" y="0">Has Lugguage</tspan></text>
      <g id="check-box" transform="translate(68 1580)">
        <g id="check-box-outline">
          <path id="Path_458" data-name="Path 458" d="M15.789,22.878l-4.511,4.511,14.5,14.5L58,9.667,53.489,5.156,25.778,32.867ZM51.556,51.556H6.444V6.444H38.667V0H6.444A6.463,6.463,0,0,0,0,6.444V51.556A6.463,6.463,0,0,0,6.444,58H51.556A6.463,6.463,0,0,0,58,51.556V25.778H51.556Z" fill="#08c585"/>
        </g>
      </g>
    </g>
    <g id="menu" transform="translate(46 71)">
      <rect id="Rectangle_384" data-name="Rectangle 384" width="63" height="7" rx="3.5" fill="#585858"/>
      <rect id="Rectangle_385" data-name="Rectangle 385" width="63" height="7" rx="3.5" transform="translate(0 17)" fill="#585858"/>
      <rect id="Rectangle_386" data-name="Rectangle 386" width="42" height="7" rx="3.5" transform="translate(0 33)" fill="#585858"/>
    </g>
  </g>
</svg>
